<?xml version="1.0" encoding="UTF-8"?>
<svg width="59px" height="33px" viewBox="0 0 59 33" version="1.1" xmlns="http://www.w3.org/2000/svg" xmlns:xlink="http://www.w3.org/1999/xlink">
    <g id="Page-1" stroke="none" stroke-width="1" fill="none" fill-rule="evenodd">
        <g id="2222936" transform="translate(-84.000000, -67.000000)" fill="#DB2638" fill-rule="nonzero">
            <rect id="Rectangle-path" x="40.07" y="44.71" width="500" height="500"></rect>
            <g id="Group" opacity="0.25" style="mix-blend-mode: multiply;">
                <path d="M79.98,75.46 C80.6999082,76.3957764 81.3675914,77.3705938 81.98,78.38 C82.4622852,77.7149936 83.226651,77.3123903 84.04785,77.2908313 C84.869049,77.2692724 85.6534864,77.631215 86.17,78.27 C86.7799556,77.2654254 87.4477469,76.297128 88.17,75.37 C85.8242864,73.2963076 82.28952,73.3351987 79.99,75.46 L79.98,75.46 Z" id="Shape"></path>
                <path d="M84.12,57.71 C77.5470293,57.7222137 71.3189817,60.6530596 67.12,65.71 C68.6634893,66.3068298 70.1523863,67.0362221 71.57,67.89 C74.841285,64.4490051 79.3772421,62.4951443 84.1250392,62.4819245 C88.8728362,62.4687047 93.4196036,64.3972755 96.71,67.82 C98.1237351,66.9980797 99.6019349,66.2924233 101.13,65.71 C96.9287802,60.6503741 90.6964714,57.7192471 84.12,57.71 Z" id="Shape"></path>
                <path d="M74.34,69.84 C75.5683003,70.7717977 76.7218197,71.7982628 77.79,72.91 C81.3487239,69.6873976 86.7605464,69.6529548 90.36,72.83 C91.4318106,71.7213734 92.58867,70.6982549 93.82,69.77 C88.3722336,64.5314085 79.7499772,64.562392 74.34,69.84 Z" id="Shape"></path>
                <path d="M138.83,75.46 C139.546734,76.398078 140.214298,77.3727222 140.83,78.38 C141.31437,77.7147601 142.080298,77.3122863 142.902912,77.2907416 C143.725527,77.2691969 144.511472,77.6310265 145.03,78.27 C145.639785,77.2653149 146.307583,76.2970078 147.03,75.37 C144.687567,73.2976882 141.156213,73.3365893 138.86,75.46 L138.83,75.46 Z" id="Shape"></path>
                <path d="M142.97,57.71 C136.376653,57.7071791 130.12415,60.6391852 125.91,65.71 C127.456503,66.3152152 128.948576,67.0512153 130.37,67.91 C133.638083,64.4669357 138.172931,62.5114274 142.920023,62.4982043 C147.667115,62.4849812 152.212787,64.4151956 155.5,67.84 C156.931585,67.0068082 158.430101,66.2943438 159.98,65.71 C155.777037,60.6526262 149.545848,57.7220258 142.97,57.71 Z" id="Shape"></path>
                <path d="M133.19,69.84 C134.416178,70.7743766 135.569505,71.8006705 136.64,72.91 C140.195435,69.6888084 145.603821,69.6543601 149.2,72.83 C150.277552,71.7236459 151.437553,70.7007057 152.67,69.77 C147.222234,64.5314085 138.599977,64.562392 133.19,69.84 Z" id="Shape"></path>
                <path d="M109.45,92.46 C110.178011,93.389865 110.846031,94.3651744 111.45,95.38 C111.930339,94.7099228 112.696142,94.3027205 113.520262,94.2791743 C114.344383,94.255628 115.132186,94.6184415 115.65,95.26 C116.256556,94.2564251 116.924493,93.2912558 117.65,92.37 C115.309549,90.2822225 111.763949,90.3212328 109.47,92.46 L109.45,92.46 Z" id="Shape"></path>
                <path d="M113.59,74.71 C106.996343,74.7057821 100.743275,77.6380528 96.53,82.71 C98.0722091,83.3170528 99.5635953,84.0460263 100.99,84.89 C104.264097,81.452935 108.800293,79.5027284 113.547187,79.4913993 C118.294081,79.4800701 122.839534,81.4086022 126.13,84.83 C127.560643,84.0044255 129.05548,83.2954649 130.6,82.71 C126.397908,77.6515007 120.16616,74.7206372 113.59,74.71 Z" id="Shape"></path>
                <path d="M103.81,86.83 C105.035908,87.7647036 106.189211,88.7909761 107.26,89.9 C110.823037,86.6847996 116.231376,86.6546816 119.83,89.83 C120.901656,88.7181556 122.058506,87.6917016 123.29,86.76 C117.842234,81.5214085 109.219977,81.552392 103.81,86.83 Z" id="Shape"></path>
                <path d="M93.12,81.62 C97.9466416,75.1783527 105.525696,71.3866622 113.575,71.3866622 C121.624304,71.3866622 129.203358,75.1783527 134.03,81.62 C135.611122,81.2133591 137.223359,80.9390782 138.85,80.8 C133.336093,72.1823396 123.810701,66.9687074 113.58,66.9687074 C103.349299,66.9687074 93.823907,72.1823396 88.31,80.8 C89.9327147,80.9440113 91.5412279,81.2182277 93.12,81.62 Z" id="Shape"></path>
                <path d="M84.12,90.71 C77.5467173,90.7208238 71.3181096,93.6519333 67.12,98.71 C68.6619116,99.3143961 70.1504548,100.04696 71.57,100.9 C74.841285,97.4590051 79.3772421,95.5051443 84.1250392,95.4919245 C88.8728362,95.4787047 93.4196036,97.4072755 96.71,100.83 C98.1381521,99.9884635 99.633209,99.2660199 101.18,98.67 C96.9599067,93.6118485 90.7074004,90.6945009 84.12,90.71 Z" id="Shape"></path>
                <path d="M74.34,102.77 C75.566073,103.708139 76.7193682,104.737747 77.79,105.85 C81.3487239,102.627398 86.7605464,102.592955 90.36,105.77 C91.4346192,104.664313 92.5912446,103.641402 93.82,102.71 C88.3722336,97.4714085 79.7499772,97.502392 74.34,102.78 L74.34,102.77 Z" id="Shape"></path>
                <path d="M63.65,97.57 C68.4742034,91.124591 76.0541469,87.3299796 84.105,87.3299796 C92.1558531,87.3299796 99.7357966,91.124591 104.56,97.57 C106.138882,97.1449699 107.751553,96.857232 109.38,96.71 C103.865205,88.0968187 94.342407,82.8865192 84.115,82.8865192 C73.887593,82.8865192 64.3647949,88.0968187 58.85,96.71 C60.4703947,96.8680533 62.075527,97.1556395 63.65,97.57 Z" id="Shape"></path>
                <path d="M142.97,90.71 C136.376343,90.7057821 130.123275,93.6380528 125.91,98.71 C127.45426,99.3163389 128.945967,100.048814 130.37,100.9 C133.638083,97.4569357 138.172931,95.5014274 142.920023,95.4882043 C147.667115,95.4749812 152.212787,97.4051956 155.5,100.83 C156.930581,99.9865061 158.429125,99.2639938 159.98,98.67 C155.769368,93.6275548 149.539298,90.7121312 142.97,90.71 Z" id="Shape"></path>
                <path d="M133.19,102.77 C134.413939,103.710717 135.567048,104.740159 136.64,105.85 C140.195435,102.628808 145.603821,102.59436 149.2,105.77 C150.280344,104.666584 151.440119,103.643843 152.67,102.71 C147.222234,97.4714085 138.599977,97.502392 133.19,102.78 L133.19,102.77 Z" id="Shape"></path>
                <path d="M122.49,97.57 C127.316299,91.1244285 134.897761,87.3299869 142.95,87.3299869 C151.002239,87.3299869 158.583701,91.1244285 163.41,97.57 C164.990374,97.1618467 166.603024,96.8908412 168.23,96.76 C162.716093,88.1423396 153.190701,82.9287074 142.96,82.9287074 C132.729299,82.9287074 123.203907,88.1423396 117.69,96.76 C119.30925,96.8999231 120.914501,97.1708093 122.49,97.57 Z" id="Shape"></path>
                <path d="M93.12,114.56 C97.9490743,108.122109 105.527242,104.333333 113.575,104.333333 C121.622758,104.333333 129.200926,108.122109 134.03,114.56 C135.611302,114.148004 137.223157,113.863756 138.85,113.71 C133.336093,105.09234 123.810701,99.8787074 113.58,99.8787074 C103.349299,99.8787074 93.823907,105.09234 88.31,113.71 C89.9335371,113.863858 91.5420612,114.148109 93.12,114.56 Z" id="Shape"></path>
            </g>
        </g>
    </g>
</svg>