<svg viewBox="0 0 1024 1024" xmlns="http://www.w3.org/2000/svg"><path d="m512 925.215c-228.129 0-413.215-185.086-413.215-413.215s185.086-413.215 413.215-413.215c228.13 0 413.215 185.086 413.215 413.215s-185.085 413.215-413.215 413.215zm-292.693-413.215c0 161.412 131.281 292.693 292.693 292.693s292.694-131.281 292.694-292.693-131.282-292.694-292.694-292.694-292.693 131.282-292.693 292.694zm476.703 30.131-171.635 171.634c-3.766 3.229-8.07 4.843-12.375 4.843-4.304 0-8.608-1.614-12.375-4.843l-172.173-172.173c-4.842-5.38-6.456-12.375-3.766-18.831 2.689-6.456 9.146-10.761 16.141-10.761h103.304v-189.39c0-9.685 7.533-17.217 17.218-17.217h103.304c9.685 0 17.217 7.533 17.217 17.217v189.39h103.305c9.685 0 17.217 7.533 17.217 17.217-.001 4.843-2.154 9.146-5.382 12.914z" fill="#34cd8b"/></svg>